<svg width="24" height="24" viewBox="0 0 24 24" fill="none" xmlns="http://www.w3.org/2000/svg">
<rect width="24" height="24" rx="12" fill="#FAFBFE"/>
<path d="M13 5.33333C13 5.62949 12.8713 5.89559 12.6667 6.0787V7.33333H16C17.1046 7.33333 18 8.22876 18 9.33333V16C18 17.1046 17.1046 18 16 18H8C6.89543 18 6 17.1046 6 16V9.33333C6 8.22876 6.89543 7.33333 8 7.33333H11.3333V6.0787C11.1287 5.89559 11 5.62949 11 5.33333C11 4.78104 11.4477 4.33333 12 4.33333C12.5523 4.33333 13 4.78104 13 5.33333ZM4 10.6667H5.33333V14.6667H4V10.6667ZM20 10.6667H18.6667V14.6667H20V10.6667ZM10 13.6667C10.5523 13.6667 11 13.2189 11 12.6667C11 12.1144 10.5523 11.6667 10 11.6667C9.44771 11.6667 9 12.1144 9 12.6667C9 13.2189 9.44771 13.6667 10 13.6667ZM15 12.6667C15 12.1144 14.5523 11.6667 14 11.6667C13.4477 11.6667 13 12.1144 13 12.6667C13 13.2189 13.4477 13.6667 14 13.6667C14.5523 13.6667 15 13.2189 15 12.6667Z" fill="#00A451"/>
</svg>
