<svg id="Layer_1" data-name="Layer 1" xmlns="http://www.w3.org/2000/svg" viewBox="0 0 378.44519 144"><defs><style>.cls-1{fill:#ffffff;}</style></defs><path id="Logo" class="cls-1" d="M349.80854,167.24386a3.02575,3.02575,0,0,1-3.2448,2.68555c-2.24869,0-3.5013-1.77344-3.63151-5.10156h12.36459a12.86347,12.86347,0,0,0,.08593-1.77344c.04428-8.21354-4.32291-11.06771-8.90494-11.06771-5.14584,0-9.33854,3.71875-9.33854,11.5,0,7.22,3.71744,10.98177,9.46744,10.98177,4.74024,0,8.20215-2.49772,8.8291-7.22461Zm-3.33073-10.71679c1.77213,0,3.19922,1.38281,3.24218,4.27994H342.9752C343.19135,158.126,344.48822,156.52707,346.47781,156.52707Zm56.38066,10.71679a3.02574,3.02574,0,0,1-3.24479,2.68555c-2.2487,0-3.5013-1.77344-3.63151-5.10156h12.36458a12.862,12.862,0,0,0,.08594-1.77344c.04427-8.21354-4.32291-11.06771-8.90495-11.06771-5.14583,0-9.33854,3.71875-9.33854,11.5,0,7.22,3.71745,10.98177,9.46745,10.98177,4.74024,0,8.20215-2.49772,8.8291-7.22461Zm-3.33073-10.71679c1.77214,0,3.19922,1.38281,3.24219,4.27994h-6.74479C396.24129,158.126,397.53816,156.52707,399.52774,156.52707ZM242.62319,135.9867c-6.3125,0-9.77083-3.63151-9.8138-9.8138h5.96615c.1289,3.19922,1.47,4.6263,3.80338,4.6263,1.73047,0,3.15625-.77864,3.15625-2.9401,0-2.20573-1.72917-3.54558-4.40885-5.01563l-2.29167-1.33984c-2.98307-1.556-5.62109-3.80469-5.62109-8.17057,0-5.57813,4.10807-8.474,9.20963-8.474,5.53386,0,8.99219,3.41536,9.03516,8.99219h-5.83594c-.21614-2.50782-1.25391-3.80469-3.24349-3.80469a2.723,2.723,0,0,0-2.9388,2.85416c0,2.29037,1.98828,3.3711,4.19271,4.53907l1.8164,1.08073c2.20443,1.16666,6.3125,3.32942,6.3125,9.07942C251.96173,133.6091,247.55158,135.9867,242.62319,135.9867Zm47.15052-4.88541v4.45312H287.2659a3.71557,3.71557,0,0,1-3.84766-2.2487c-1.16666,1.73047-2.98307,2.681-5.793,2.681-4.10678,0-6.8737-2.16146-6.8737-6.18229,0-4.58333,3.41536-6.3125,6.91666-6.918l4.4961-.6914v-1.29688c0-1.85937-.90755-2.8099-2.42057-2.8099-1.60027,0-2.46485.9948-2.59375,2.85287h-5.92318c.25911-4.66927,3.37239-7.4362,8.474-7.4362,4.49609,0,8.38672,2.07552,8.38672,7.52344v8.60286c0,.95183.38932,1.47006,1.21093,1.47006Zm-7.60937-4.97136-2.724.47526c-1.25391.21615-2.76693.82162-2.76693,2.724a2.0216,2.0216,0,0,0,2.20573,2.20443c1.47,0,3.28516-.77865,3.28516-3.50131Zm10.72913-12.19271h5.405l.51823,2.29167h.38932a5.81226,5.81226,0,0,1,5.18881-2.724c4.01953,0,6.52734,2.8112,6.52734,7.52344v14.526h-5.92318V122.238c0-2.46354-1.33984-3.67448-2.98307-3.67448-1.64193,0-3.19922,1.168-3.19922,3.89063v13.10026h-5.92318Zm39.94633-9.07812v30.69531h-4.84245l-.47526-2.07552h-.38932a5.84264,5.84264,0,0,1-5.01563,2.50781c-4.84245,0-8.1276-3.89062-8.1276-11.24088,0-7.69532,3.71744-11.24089,8.1276-11.24089a6.03052,6.03052,0,0,1,4.79948,2.03255V104.8591Zm-5.92318,19.88672c0-4.32292-1.42708-6.1823-3.5026-6.1823s-3.50131,1.85938-3.50131,6.1823c0,4.27994,1.42578,6.18229,3.50131,6.18229S326.91662,129.02576,326.91662,124.74582Zm28.11482,6.35547v4.45312h-2.50781a3.71556,3.71556,0,0,1-3.84766-2.2487c-1.16666,1.73047-2.98307,2.681-5.793,2.681-4.10677,0-6.87369-2.16146-6.87369-6.18229,0-4.58333,3.41536-6.3125,6.91666-6.918l4.4961-.6914v-1.29688c0-1.85937-.90755-2.8099-2.42058-2.8099-1.60026,0-2.46484.9948-2.59375,2.85287h-5.92317c.25911-4.66927,3.37239-7.4362,8.474-7.4362,4.49609,0,8.38671,2.07552,8.38671,7.52344v8.60286c0,.95183.38933,1.47006,1.21094,1.47006Zm-7.60937-4.97136-2.724.47526c-1.25391.21615-2.76693.82162-2.76693,2.724a2.02159,2.02159,0,0,0,2.20573,2.20443c1.47005,0,3.28516-.77865,3.28516-3.50131Zm10.89843-12.19271h5.40365l.51953,2.681h.38932c1.08073-1.94531,2.37761-3.11328,5.44662-3.11328h1.21094v5.88021a16.45123,16.45123,0,0,0-1.90235-.17318c-3.93489,0-5.14453,3.32943-5.14453,6.57162v9.77083H358.3205Zm33.32084-9.07812v30.69531h-4.84245l-.47526-2.07552h-.38932a5.84264,5.84264,0,0,1-5.01563,2.50781c-4.84245,0-8.1276-3.89062-8.1276-11.24088,0-7.69532,3.71745-11.24089,8.1276-11.24089a6.03052,6.03052,0,0,1,4.79948,2.03255V104.8591Zm-5.92318,19.88672c0-4.32292-1.42708-6.1823-3.5026-6.1823s-3.50131,1.85938-3.50131,6.1823c0,4.27994,1.42579,6.18229,3.50131,6.18229S385.71816,129.02576,385.71816,124.74582Zm8.938,4.02083h5.66406c.17188,2.07552,1.38282,2.89714,2.93881,2.89714,1.34114,0,2.29166-.60547,2.29166-1.81641,0-1.47-1.21093-2.11849-3.15625-2.89583l-1.64192-.60547c-2.638-.99479-5.57813-2.33464-5.57813-6.35547,0-4.27995,3.50261-6.48568,7.69662-6.48568,5.10156,0,7.69531,2.8112,7.95442,6.70182H405.2916a2.29777,2.29777,0,0,0-2.42057-2.3776,1.83069,1.83069,0,0,0-2.03256,1.90234c0,1.29688,1.21094,1.81511,2.94011,2.50651l1.599.60547c2.681.95183,5.79427,2.638,5.79427,6.875,0,4.36589-3.63282,6.26823-7.95573,6.26823C397.68222,135.9867,394.78639,133.21977,394.65618,128.76665ZM250.57762,168.71977v5.31771h-17.207v-30.263h16.77474v5.31771h-10.8086v6.95964h9.20964v5.27474h-9.20964v7.39322Zm3.58847-16.29947h5.40364l.51954,2.29166h.38932a5.811,5.811,0,0,1,5.1875-2.724c4.02083,0,6.52864,2.8112,6.52864,7.52344v14.526h-5.92317v-13.3164c0-2.46354-1.33985-3.67448-2.98308-3.67448s-3.19921,1.168-3.19921,3.89062v13.10026h-5.92318Zm37.43958,3.07031a7.10293,7.10293,0,0,1,1.16667,3.89062c0,4.75521-3.67448,7.263-8.25651,7.263a12.7429,12.7429,0,0,1-2.94011-.345,1.67471,1.67471,0,0,0-.64843,1.33985c0,1.12369.99349,1.8151,2.55078,1.8151h3.15625c4.625,0,7.17578,2.55078,7.17578,6.35547,0,4.49609-3.58854,7.30729-9.2513,7.30729-5.96615,0-9.03646-3.02734-9.55469-6.83073l3.24219-3.07031a4.553,4.553,0,0,1-2.46355-4.14974,5.2512,5.2512,0,0,1,2.63672-4.41016,6.61835,6.61835,0,0,1-2.24869-5.27474c0-4.27994,3.07031-7.39323,8.21484-7.39323a9.367,9.367,0,0,1,4.32292.9948,10.39612,10.39612,0,0,0,3.07031-3.069l2.9401,2.85286A8.90029,8.90029,0,0,1,291.60567,155.49061Zm-6.26953,18.5039h-2.29036l-2.33464,2.46355a3.81862,3.81862,0,0,0,3.84766,2.3789c1.98828,0,3.67448-.86588,3.67448-2.59505C288.23328,174.68592,286.97937,173.99451,285.33614,173.99451Zm1.81641-14.65625c0-2.11849-1.1237-3.28645-2.63672-3.28645-1.60026,0-2.724,1.168-2.724,3.28645,0,2.07553,1.1237,3.19922,2.724,3.19922C286.02885,162.53748,287.15255,161.41379,287.15255,159.33826Zm27.62448,10.2461v4.45312h-2.50651a3.71457,3.71457,0,0,1-3.84766-2.24869c-1.168,1.73046-2.98307,2.681-5.79427,2.681-4.10677,0-6.8737-2.16145-6.8737-6.18229,0-4.58333,3.41536-6.3125,6.918-6.918l4.49609-.6914v-1.29688c0-1.85937-.90885-2.80989-2.42187-2.80989-1.599,0-2.46354.99479-2.59375,2.85286h-5.92318c.25912-4.66927,3.3724-7.4362,8.474-7.4362,4.49609,0,8.38672,2.07552,8.38672,7.52344v8.60287c0,.95182.38932,1.47005,1.21094,1.47005ZM307.169,164.613l-2.724.47526c-1.2539.21615-2.76692.82162-2.76692,2.724a2.02063,2.02063,0,0,0,2.20442,2.20443c1.47006,0,3.28646-.77865,3.28646-3.5013Zm26.02552-9.12239a7.10293,7.10293,0,0,1,1.16667,3.89062c0,4.75521-3.67448,7.263-8.25651,7.263a12.74274,12.74274,0,0,1-2.9401-.345,1.67469,1.67469,0,0,0-.64844,1.33985c0,1.12369.99349,1.8151,2.55078,1.8151h3.15625c4.625,0,7.17578,2.55078,7.17578,6.35547,0,4.49609-3.58854,7.30729-9.2513,7.30729-5.96615,0-9.03646-3.02734-9.55469-6.83073l3.24219-3.07031a4.553,4.553,0,0,1-2.46354-4.14974,5.25118,5.25118,0,0,1,2.63672-4.41016,6.61832,6.61832,0,0,1-2.2487-5.27474c0-4.27994,3.07031-7.39323,8.21484-7.39323a9.367,9.367,0,0,1,4.32292.9948,10.39612,10.39612,0,0,0,3.07031-3.069l2.9401,2.85286A8.9002,8.9002,0,0,1,333.19447,155.49061Zm-6.26953,18.5039h-2.29036l-2.33464,2.46355a3.81862,3.81862,0,0,0,3.84766,2.3789c1.98828,0,3.67448-.86588,3.67448-2.59505C329.82208,174.68592,328.56817,173.99451,326.92494,173.99451Zm1.81641-14.65625c0-2.11849-1.1237-3.28645-2.63672-3.28645-1.60026,0-2.724,1.168-2.724,3.28645,0,2.07553,1.1237,3.19922,2.724,3.19922C327.61765,162.53748,328.74135,161.41379,328.74135,159.33826Zm30.12733-6.918h5.405l.51823,2.29166h.38932a5.65909,5.65909,0,0,1,5.10156-2.724,4.82658,4.82658,0,0,1,4.71224,2.98308h.34636a6.398,6.398,0,0,1,5.707-2.98308c3.76042,0,6.09505,2.20573,6.09505,6.96094v15.08854h-5.92318V160.07264c0-1.98828-1.12369-3.069-2.59375-3.069-1.556,0-2.67968,1.29687-2.67968,3.32943v13.70442h-5.92318V160.20285c0-2.03255-1.08073-3.19922-2.50781-3.19922-1.38282,0-2.724,1.16667-2.724,3.28516v13.74869h-5.92318Zm52.82594,0h5.405l.51823,2.29166h.38932a5.81491,5.81491,0,0,1,5.1888-2.724c4.01953,0,6.52735,2.8112,6.52735,7.52344v14.526h-5.92318v-13.3164c0-2.46354-1.33985-3.67448-2.98307-3.67448-1.64193,0-3.19922,1.168-3.19922,3.89062v13.10026h-5.92318Zm23.5359,15.95312V157.08957h-3.66381V152.4203h1.07006c2.20442,0,3.19921-.82032,3.19921-3.069V146.8005h5.31771v5.6198h5.1875v4.66927h-5.1875V167.4229c0,1.38281.60547,2.3776,2.55078,2.3776a8.79542,8.79542,0,0,0,1.90235-.21614v4.41015a15.27031,15.27031,0,0,1-3.71745.47526C437.04692,174.46977,435.23052,171.83306,435.23052,168.37342ZM257.5013,129.89035V118.60649h-3.66381v-4.66927h1.07006c2.20442,0,3.19922-.82031,3.19922-3.069v-2.55078h5.3177v5.61979h5.1875v4.66927h-5.1875v10.33334c0,1.38281.60547,2.3776,2.55078,2.3776a8.796,8.796,0,0,0,1.90235-.21614v4.41015a15.27031,15.27031,0,0,1-3.71745.47526C259.3177,135.9867,257.5013,133.35,257.5013,129.89035Zm185.38789,5.663-5.18786-6.9482,4.87883-8.10558h-5.406L434.72,124.61238l-2.70446-3.62195.22073-.21254c2.32191-2.187,4.30525-4.67108,4.30525-7.69682,0-4.15366-2.99871-7.01417-7.30331-7.01417-4.45847,0-7.53768,3.00082-7.53768,7.30948,0,2.34155.93227,4.05839,2.58321,6.28836l.49081.637-.32169.28451c-2.77051,2.37425-4.69315,4.865-4.69315,8.07856,0,4.109,3.00163,7.33821,8.36266,7.33821a7.74983,7.74983,0,0,0,6.46275-3.22959l2.05411,2.77985Zm-13.70471-24.89478c1.40311,0,2.16041,1.12346,2.16041,2.54751,0,1.64047-1.19422,3.06939-2.40014,4.237l-.2415-.33621c-1.25623-1.7377-1.71344-2.78959-1.71344-3.91435A2.25518,2.25518,0,0,1,429.18448,110.65854ZM428.154,131.05565a2.67224,2.67224,0,0,1-2.83024-2.70583c0-1.35864.93389-2.70137,2.2862-4.01027l.43449-.41777,3.64322,4.93045C430.65867,130.39865,429.67252,131.05565,428.154,131.05565ZM139.89587,67.896a72,72,0,1,0,72,72A72,72,0,0,0,139.89587,67.896Zm0,121.92256A49.92231,49.92231,0,1,1,189.81818,139.896,49.92257,49.92257,0,0,1,139.89587,189.81856Zm-31.23153-84.12374h11.67408v37.606c0,2.39068.73117,4.44864,4.05429,4.44864,3.06023,0,3.99268-2.65768,3.99268-4.78137V105.69482h11.67v36.07791c0,8.4372-3.77908,14.952-15.72837,14.952-9.89134,0-15.66265-4.71974-15.66265-14.952V105.69482m35.98752,67.89611h25.96065v-9.994H156.32183V123.7194h-11.67v49.87153" transform="translate(-67.896 -67.896)"/></svg>